<svg aria-hidden="true" style="position:absolute;width:0;height:0;overflow:hidden" xmlns="http://www.w3.org/2000/svg"><defs><symbol id="icon-arrow-down" viewBox="0 0 32 32"><path  d="M20.966 12.531 16 17.497l-4.966-4.966a1.275 1.275 0 1 0-1.805 1.805l5.875 5.875a1.275 1.275 0 0 0 1.805 0l5.875-5.875a1.275 1.275 0 0 0 0-1.805c-.499-.486-1.318-.499-1.818 0z"/></symbol><symbol id="icon-arrow-left" viewBox="0 0 33 32"><path fill="#1b3d5b" style="fill:var(--color1, #1b3d5b)" d="M19.724 26.276a1.333 1.333 0 1 0 1.886-1.886l-1.886 1.886zM11.333 16l-.943-.943a1.333 1.333 0 0 0 0 1.886l.943-.943zm10.276-8.391a1.333 1.333 0 1 0-1.886-1.886l1.886 1.886zm0 16.782-9.333-9.333-1.886 1.886 9.333 9.333 1.886-1.886zm-9.333-7.448 9.333-9.333-1.886-1.886-9.333 9.333 1.886 1.886z"/></symbol><symbol id="icon-arrow-right" viewBox="0 0 33 32"><path fill="#1b3d5b" style="fill:var(--color1, #1b3d5b)" d="M13.609 5.724a1.333 1.333 0 1 0-1.886 1.886l1.886-1.886zM22 16l.943.943a1.333 1.333 0 0 0 0-1.886L22 16zm-10.276 8.391a1.333 1.333 0 1 0 1.886 1.886l-1.886-1.886zm0-16.782 9.333 9.333 1.886-1.886-9.333-9.333-1.886 1.886zm9.333 7.448-9.333 9.333 1.886 1.886 9.333-9.333-1.886-1.886z"/></symbol><symbol id="icon-arrow-up" viewBox="0 0 32 32"><path fill="#1b3d5b" style="fill:var(--color1, #1b3d5b)" d="m19.337 13.808.007 4.753h1.869v-7.955h-7.955v1.869l4.753.007-8.068 8.068 1.326 1.326 8.068-8.068z"/></symbol><symbol id="icon-footer1" viewBox="0 0 32 32"><path d="M32 16c0-8.837-7.163-16-16-16S0 7.163 0 16c0 7.986 5.851 14.605 13.5 15.806V20.625H9.437V16H13.5v-3.525c0-4.01 2.389-6.225 6.043-6.225 1.75 0 3.582.313 3.582.313v3.938h-2.018c-1.987 0-2.607 1.233-2.607 2.5v3h4.437l-.709 4.625H18.5v11.181c7.649-1.2 13.5-7.82 13.5-15.806z"/></symbol><symbol id="icon-footer2" viewBox="0 0 32 32"><path d="M10.067 29c12.072 0 18.678-10.004 18.678-18.678 0-.281-.006-.569-.019-.85A13.31 13.31 0 0 0 32 6.073c-1.197.532-2.467.88-3.768 1.031a6.602 6.602 0 0 0 2.887-3.631 13.2 13.2 0 0 1-4.168 1.593 6.57 6.57 0 0 0-7.888-1.291 6.573 6.573 0 0 0-3.304 7.278A18.65 18.65 0 0 1 2.23 4.198c-.838 1.445-1.095 3.155-.717 4.782s1.36 3.05 2.748 3.979a6.57 6.57 0 0 1-2.974-.819v.081a6.56 6.56 0 0 0 5.268 6.438 6.532 6.532 0 0 1-2.962.113 6.577 6.577 0 0 0 6.13 4.563A13.169 13.169 0 0 1 0 26.052a18.625 18.625 0 0 0 10.067 2.949z"/></symbol><symbol id="icon-footer3" viewBox="0 0 32 32"><path d="M29.631 0H2.362C1.056 0 0 1.031 0 2.306v27.381C0 30.962 1.056 32 2.362 32h27.269C30.937 32 32 30.963 32 29.694V2.307C32 1.032 30.937.001 29.631.001zM9.494 27.269h-4.75V11.994h4.75v15.275zM7.119 9.912a2.751 2.751 0 1 1 0-5.5 2.75 2.75 0 1 1 0 5.5zm20.15 17.357h-4.744v-7.425c0-1.769-.031-4.05-2.469-4.05-2.469 0-2.844 1.931-2.844 3.925v7.55h-4.738V11.994h4.55v2.087h.063c.631-1.2 2.181-2.469 4.488-2.469 4.806 0 5.694 3.163 5.694 7.275v8.381z"/></symbol><symbol id="icon-footer4" viewBox="0 0 32 32"><path d="M31.681 9.6s-.312-2.206-1.275-3.175C29.187 5.15 27.825 5.144 27.2 5.069c-4.475-.325-11.194-.325-11.194-.325h-.013s-6.719 0-11.194.325c-.625.075-1.987.081-3.206 1.356C.63 7.394.324 9.6.324 9.6s-.325 2.594-.325 5.181v2.425c0 2.588.319 5.181.319 5.181s.312 2.206 1.269 3.175c1.219 1.275 2.819 1.231 3.531 1.369 2.563.244 10.881.319 10.881.319s6.725-.012 11.2-.331c.625-.075 1.987-.081 3.206-1.356.963-.969 1.275-3.175 1.275-3.175s.319-2.588.319-5.181v-2.425c0-2.588-.319-5.181-.319-5.181zM12.694 20.15v-8.994l8.644 4.512-8.644 4.481z"/></symbol><symbol id="icon-Logo" viewBox="0 0 129 32"><path style="fill:var(--color2, #000)" d="M20.737 16.021c1.052-.88 1.721-2.203 1.721-3.682s-.669-2.801-1.721-3.682c.121-.058.237-.122.347-.19a4.558 4.558 0 0 1 6.963 3.872 4.558 4.558 0 0 1-6.963 3.872 3.737 3.737 0 0 0-.347-.19z"/><path style="fill:var(--color2, #000)" d="M19.471 13.057c.471-1.288.388-2.768-.352-4.049s-1.981-2.092-3.333-2.328c.075-.111.144-.224.205-.338a4.561 4.561 0 0 1 7.968-.126 4.554 4.554 0 0 1-1.669 6.224 4.538 4.538 0 0 1-2.424.609 3.763 3.763 0 0 0-.396.009z"/><path style="fill:var(--color2, #000)" d="M16.891 11.122c-.237-1.351-1.049-2.591-2.33-3.331s-2.762-.822-4.051-.351c.01-.133.013-.266.009-.396a4.561 4.561 0 0 1 6.837-4.091 4.554 4.554 0 0 1-.126 7.962 3.58 3.58 0 0 0-.338.205z"/><path style="fill:var(--color2, #000)" d="M13.688 10.736c-.881-1.051-2.205-1.72-3.684-1.72s-2.803.669-3.684 1.72a3.846 3.846 0 0 0-.19-.347 4.558 4.558 0 0 1 3.874-6.958 4.558 4.558 0 0 1 3.874 6.958c-.069.11-.132.226-.19.347z"/><path style="fill:var(--color2, #000)" d="M10.721 12.001c-1.289-.47-2.77-.388-4.051.351s-2.093 1.98-2.33 3.331a3.853 3.853 0 0 0-.338-.205 4.554 4.554 0 0 1-.126-7.962 4.561 4.561 0 0 1 6.837 4.09c-.004.13-.001.262.009.396z"/><path style="fill:var(--color2, #000)" d="M8.784 14.58c-1.352.237-2.593 1.048-3.333 2.328s-.822 2.76-.351 4.049a3.763 3.763 0 0 0-.396-.009 4.538 4.538 0 0 1-2.424-.609C.099 19.081-.648 16.294.611 14.115a4.561 4.561 0 0 1 7.968.125c.061.115.13.228.205.338z"/><path style="fill:var(--color2, #000)" d="M8.397 17.781c-1.052.881-1.721 2.203-1.721 3.682s.669 2.801 1.721 3.682a3.714 3.714 0 0 0-.347.19 4.558 4.558 0 0 1-6.963-3.872 4.558 4.558 0 0 1 6.963-3.872c.111.069.227.132.347.19z"/><path style="fill:var(--color2, #000)" d="M9.663 20.746c-.471 1.288-.389 2.768.351 4.048s1.981 2.092 3.333 2.328a3.853 3.853 0 0 0-.205.338 4.56 4.56 0 0 1-7.968.126 4.554 4.554 0 0 1 1.669-6.224 4.538 4.538 0 0 1 2.424-.609c.13.004.262.001.396-.009z"/><path style="fill:var(--color2, #000)" d="M12.243 22.681c.237 1.351 1.049 2.591 2.33 3.33s2.762.822 4.051.351c-.01.134-.013.266-.009.396a4.561 4.561 0 0 1-6.837 4.09 4.554 4.554 0 0 1 .126-7.962 3.58 3.58 0 0 0 .338-.205z"/><path style="fill:var(--color2, #000)" d="M15.446 23.068c.881 1.051 2.204 1.72 3.684 1.72s2.803-.669 3.684-1.72c.058.12.122.236.19.347a4.558 4.558 0 0 1-3.874 6.958 4.558 4.558 0 0 1-3.875-6.958c.069-.11.132-.226.19-.347z"/><path style="fill:var(--color2, #000)" d="M18.413 21.803c1.289.47 2.77.388 4.051-.351s2.093-1.98 2.33-3.331c.111.075.224.144.338.205a4.554 4.554 0 0 1 .126 7.962 4.56 4.56 0 0 1-6.837-4.09c.004-.13.001-.262-.009-.396z"/><path style="fill:var(--color2, #000)" d="m23.686 16.892-.003.005a4.79 4.79 0 0 1-3.333 2.328c.075.111.144.224.205.338a4.56 4.56 0 0 0 7.968.126 4.556 4.556 0 0 0-.825-5.598 4.56 4.56 0 0 1-4.013 2.801z"/><path fill="#1b3d5b" style="fill:var(--color1, #1b3d5b)" d="M39.825 8.287v13.608h-3.018V8.287h3.018zm-2.54 13.608.055-2.666h7.82v2.666h-7.876zm8.348-4.616c0-.968.202-1.814.607-2.538.405-.736.975-1.306 1.711-1.71s1.594-.607 2.576-.607c.981 0 1.834.202 2.557.607a4.255 4.255 0 0 1 1.711 1.71c.405.723.608 1.569.608 2.538s-.203 1.814-.608 2.538a4.286 4.286 0 0 1-1.711 1.692c-.723.405-1.576.607-2.557.607s-1.84-.202-2.576-.607-1.306-.968-1.711-1.692c-.405-.723-.607-1.569-.607-2.538zm2.852-.018c0 .466.086.877.258 1.232.172.343.411.613.717.809.307.184.663.276 1.068.276s.76-.092 1.067-.276a1.87 1.87 0 0 0 .699-.809c.172-.356.257-.766.257-1.232s-.086-.87-.257-1.214a1.77 1.77 0 0 0-.699-.791c-.307-.196-.663-.294-1.067-.294s-.761.098-1.068.294c-.307.184-.546.447-.717.791s-.258.748-.258 1.214zm7.559-.129c0-.944.19-1.771.57-2.483s.902-1.263 1.564-1.655c.662-.405 1.423-.607 2.282-.607.724 0 1.362.147 1.913.441.564.294.945.68 1.141 1.158l-.276.184.221-1.471h2.558v8.606c0 1.079-.208 2.011-.626 2.795a4.374 4.374 0 0 1-1.785 1.839c-.761.429-1.669.644-2.724.644-.883 0-1.68-.178-2.392-.533a4.412 4.412 0 0 1-1.711-1.471c-.429-.637-.687-1.373-.773-2.207h2.871c.025.527.233.932.626 1.214.405.282.92.423 1.546.423.699 0 1.239-.196 1.619-.588.38-.38.57-.889.57-1.526v-1.949l.258.239c-.197.478-.577.864-1.141 1.159s-1.215.441-1.951.441c-.846 0-1.601-.196-2.263-.588a4.234 4.234 0 0 1-1.546-1.637c-.368-.699-.552-1.508-.552-2.427zm2.87-.073c0 .441.092.834.276 1.177s.429.613.736.809c.307.184.644.276 1.012.276.441 0 .828-.092 1.159-.276a2 2 0 0 0 .791-.809c.196-.343.294-.735.294-1.177 0-.454-.098-.84-.294-1.159a2.04 2.04 0 0 0-.81-.772c-.331-.184-.717-.276-1.159-.276-.368 0-.705.092-1.012.276s-.552.441-.736.772c-.172.331-.258.717-.258 1.159zm8.113.22c0-.968.202-1.814.607-2.538.405-.736.975-1.306 1.711-1.71s1.595-.607 2.576-.607c.981 0 1.834.202 2.558.607a4.26 4.26 0 0 1 1.711 1.71c.405.723.607 1.569.607 2.538s-.202 1.814-.607 2.538-.975 1.287-1.711 1.692c-.724.405-1.576.607-2.558.607s-1.84-.202-2.576-.607c-.736-.405-1.306-.968-1.711-1.692s-.607-1.569-.607-2.538zm2.852-.018c0 .466.086.877.257 1.232.172.343.411.613.718.809.307.184.662.276 1.067.276s.761-.092 1.067-.276a1.87 1.87 0 0 0 .699-.809c.172-.356.257-.766.257-1.232s-.086-.87-.257-1.214a1.77 1.77 0 0 0-.699-.791c-.307-.196-.662-.294-1.067-.294s-.761.098-1.067.294c-.307.184-.546.447-.718.791s-.257.748-.257 1.214zm8.111 4.634v-9.194h2.852v9.194H77.99zm1.435-10.629a1.61 1.61 0 0 1-1.159-.46c-.307-.319-.46-.705-.46-1.159s.153-.834.46-1.14c.319-.306.705-.46 1.159-.46.442 0 .816.153 1.122.46.319.307.479.687.479 1.14s-.16.84-.479 1.159a1.53 1.53 0 0 1-1.122.46zm3.261 15.042V12.7h2.595l.147 1.122c.258-.429.669-.772 1.233-1.03a4.347 4.347 0 0 1 1.822-.386c.858 0 1.607.19 2.245.57s1.141.926 1.509 1.637c.368.699.564 1.545.589 2.538.024.968-.136 1.833-.479 2.593-.344.748-.84 1.336-1.491 1.765s-1.435.644-2.355.644c-.638 0-1.233-.11-1.785-.331s-.963-.503-1.233-.846v5.333h-2.797zm2.852-9.01c0 .454.092.858.276 1.214.197.343.46.613.791.809.343.184.736.276 1.177.276.454 0 .841-.098 1.159-.294.331-.196.583-.466.754-.809.185-.343.276-.742.276-1.195s-.092-.852-.276-1.195a1.917 1.917 0 0 0-.754-.809c-.319-.196-.705-.294-1.159-.294-.442 0-.834.098-1.177.294a2.038 2.038 0 0 0-.791.791c-.185.343-.276.748-.276 1.214zm7.773 1.691h2.559c0 .319.103.57.313.754.221.184.539.276.956.276.245 0 .448-.031.608-.092a.818.818 0 0 0 .386-.257.628.628 0 0 0 .147-.405.554.554 0 0 0-.165-.405c-.099-.11-.27-.196-.516-.257l-1.619-.423c-.909-.245-1.552-.607-1.933-1.085s-.57-1.024-.57-1.637.153-1.146.46-1.6a3.068 3.068 0 0 1 1.288-1.067c.54-.257 1.146-.386 1.822-.386 1.018 0 1.852.282 2.502.846.662.552 1.012 1.306 1.049 2.262H98.04c.013-.319-.079-.57-.275-.754-.196-.196-.454-.294-.773-.294-.282 0-.516.074-.699.221-.172.135-.258.325-.258.57 0 .233.086.405.258.515.172.098.404.184.699.257l1.637.405c.761.184 1.338.497 1.73.938s.589 1.005.589 1.692c0 .944-.349 1.692-1.049 2.243s-1.607.828-2.723.828c-1.153 0-2.08-.288-2.778-.864-.687-.588-1.049-1.349-1.086-2.28zm12.158 3.145c-1.08 0-1.914-.337-2.503-1.011s-.883-1.557-.883-2.648v-5.774h2.834v4.744c0 .858.153 1.434.46 1.729s.711.441 1.214.441c.651 0 1.098-.184 1.343-.552s.368-.895.368-1.581v-4.781h2.834v9.194h-2.668l-.185-1.03c-.282.38-.681.686-1.196.919s-1.055.349-1.619.349zm10.345-.239h-2.853v-9.194h2.65l.202 1.581-.313-.331c.245-.466.614-.84 1.104-1.122a3.156 3.156 0 0 1 1.619-.441c.908 0 1.619.202 2.135.607.527.405.908.938 1.14 1.6h-.442c.147-.662.503-1.195 1.068-1.6s1.239-.607 2.024-.607c1.19 0 2.067.319 2.631.956s.846 1.483.846 2.538v6.013h-2.759v-5.314c0-.576-.142-1.005-.424-1.287-.27-.282-.631-.423-1.086-.423-.269 0-.527.061-.773.184-.245.11-.448.313-.608.607-.159.282-.239.687-.239 1.214v5.02h-2.797v-5.314c0-.576-.135-.999-.405-1.269-.27-.282-.632-.423-1.086-.423a1.82 1.82 0 0 0-.791.184c-.245.11-.448.313-.607.607-.159.282-.239.68-.239 1.195v5.02z"/>
<symbol id="icon-burger" viewBox="0 0 32 32">
<path d="M6.4 11.734v-2.134h19.2v2.134h-19.2zM6.4 17.066h19.2v-2.133h-19.2v2.133zM6.4 22.4h19.2v-2.134h-19.2v2.134z"></path>
</symbol>
<symbol id="icon-cross" viewBox="0 0 32 32">
<path d="M23.734 10.304l-1.504-1.504-5.963 5.962-5.962-5.962-1.504 1.504 5.962 5.962-5.962 5.963 1.504 1.504 5.962-5.963 5.963 5.963 1.504-1.504-5.963-5.963 5.963-5.962z"></path>
</symbol></symbol></defs></svg>